<svg width="193" height="35" viewBox="0 0 193 35" fill="none" xmlns="http://www.w3.org/2000/svg">
<path d="M2.7 29V3.512H7.848V14.096H11.448L18.072 3.512H23.976L15.768 15.896L23.976 29H17.928L11.664 18.848H7.848V29H2.7Z" fill="#1C84DF"/>
<path d="M24.816 20.112C23.9627 20.112 23.216 19.9413 22.576 19.6C21.936 19.248 21.44 18.752 21.088 18.112C20.736 17.4613 20.56 16.6933 20.56 15.808C20.56 14.9013 20.736 14.1227 21.088 13.472C21.4507 12.8107 21.952 12.304 22.592 11.952C23.232 11.6 23.968 11.424 24.8 11.424C25.6533 11.424 26.3947 11.6053 27.024 11.968C27.6533 12.3307 28.144 12.8373 28.496 13.488C28.848 14.1387 29.024 14.9173 29.024 15.824C29.024 16.7093 28.848 17.4773 28.496 18.128C28.1547 18.768 27.6693 19.2587 27.04 19.6C26.4213 19.9413 25.68 20.112 24.816 20.112ZM24.784 18.064C25.2747 18.064 25.6693 17.9573 25.968 17.744C26.2667 17.5307 26.48 17.2533 26.608 16.912C26.7467 16.56 26.816 16.192 26.816 15.808C26.816 15.424 26.7467 15.056 26.608 14.704C26.48 14.352 26.2667 14.064 25.968 13.84C25.68 13.6053 25.2853 13.488 24.784 13.488C24.304 13.488 23.9147 13.6053 23.616 13.84C23.3173 14.064 23.0987 14.352 22.96 14.704C22.832 15.056 22.768 15.424 22.768 15.808C22.768 16.2027 22.832 16.5707 22.96 16.912C23.0987 17.2533 23.3173 17.5307 23.616 17.744C23.9147 17.9573 24.304 18.064 24.784 18.064ZM31.8981 20V11.568H33.9941L34.1061 12.544C34.3408 12.256 34.6075 12.032 34.9061 11.872C35.2155 11.7013 35.5248 11.584 35.8341 11.52C36.1541 11.456 36.4421 11.424 36.6981 11.424C37.5088 11.424 38.1381 11.6 38.5861 11.952C39.0448 12.304 39.3701 12.7787 39.5621 13.376C39.7648 13.9627 39.8661 14.6187 39.8661 15.344V20H37.6261V15.632C37.6261 15.376 37.6048 15.12 37.5621 14.864C37.5195 14.608 37.4395 14.3733 37.3221 14.16C37.2155 13.9467 37.0608 13.776 36.8581 13.648C36.6555 13.52 36.3888 13.456 36.0581 13.456C35.6315 13.456 35.2741 13.5627 34.9861 13.776C34.6981 13.9893 34.4848 14.2773 34.3461 14.64C34.2075 15.0027 34.1381 15.4027 34.1381 15.84V20H31.8981ZM46.4656 20.112C45.5163 20.112 44.8123 19.8453 44.3536 19.312C43.9056 18.7787 43.6816 18.048 43.6816 17.12V13.568H42.4176V11.568H43.6816V9.296H45.9216V11.568H48.4816V13.568H45.9216V16.656C45.9216 16.9333 45.9536 17.1733 46.0176 17.376C46.0923 17.5787 46.2096 17.7387 46.3696 17.856C46.5403 17.9627 46.7696 18.016 47.0576 18.016C47.3136 18.016 47.527 17.9787 47.6976 17.904C47.879 17.8187 48.0283 17.728 48.1456 17.632L48.8496 19.36C48.6256 19.5413 48.375 19.6907 48.0976 19.808C47.831 19.9147 47.559 19.9893 47.2816 20.032C47.0043 20.0853 46.7323 20.112 46.4656 20.112ZM55.1516 20.112C54.2983 20.112 53.5516 19.9413 52.9116 19.6C52.2716 19.248 51.7756 18.752 51.4236 18.112C51.0716 17.4613 50.8956 16.6933 50.8956 15.808C50.8956 14.9013 51.0716 14.1227 51.4236 13.472C51.7863 12.8107 52.2876 12.304 52.9276 11.952C53.5676 11.6 54.3036 11.424 55.1356 11.424C55.989 11.424 56.7303 11.6053 57.3596 11.968C57.989 12.3307 58.4796 12.8373 58.8316 13.488C59.1836 14.1387 59.3596 14.9173 59.3596 15.824C59.3596 16.7093 59.1836 17.4773 58.8316 18.128C58.4903 18.768 58.005 19.2587 57.3756 19.6C56.757 19.9413 56.0156 20.112 55.1516 20.112ZM55.1196 18.064C55.6103 18.064 56.005 17.9573 56.3036 17.744C56.6023 17.5307 56.8156 17.2533 56.9436 16.912C57.0823 16.56 57.1516 16.192 57.1516 15.808C57.1516 15.424 57.0823 15.056 56.9436 14.704C56.8156 14.352 56.6023 14.064 56.3036 13.84C56.0156 13.6053 55.621 13.488 55.1196 13.488C54.6396 13.488 54.2503 13.6053 53.9516 13.84C53.653 14.064 53.4343 14.352 53.2956 14.704C53.1676 15.056 53.1036 15.424 53.1036 15.808C53.1036 16.2027 53.1676 16.5707 53.2956 16.912C53.4343 17.2533 53.653 17.5307 53.9516 17.744C54.2503 17.9573 54.6396 18.064 55.1196 18.064ZM62.2338 20V11.568H64.2498L64.3938 12.576C64.6071 12.256 64.8471 12.016 65.1138 11.856C65.3804 11.6853 65.6578 11.5733 65.9458 11.52C66.2338 11.456 66.5271 11.424 66.8258 11.424C66.9644 11.424 67.0924 11.4293 67.2098 11.44C67.3271 11.44 67.4124 11.44 67.4658 11.44V13.6H66.9378C66.4364 13.6 65.9991 13.6853 65.6258 13.856C65.2524 14.0267 64.9644 14.2933 64.7618 14.656C64.5698 15.0187 64.4738 15.4827 64.4738 16.048V20H62.2338ZM72.627 20.112C72.243 20.112 71.8697 20.064 71.507 19.968C71.155 19.8613 70.8403 19.7013 70.563 19.488C70.2857 19.2747 70.067 19.008 69.907 18.688C69.747 18.368 69.667 17.9947 69.667 17.568C69.667 16.992 69.7843 16.5333 70.019 16.192C70.2537 15.84 70.5683 15.5733 70.963 15.392C71.3577 15.2107 71.811 15.088 72.323 15.024C72.8457 14.96 73.3843 14.928 73.939 14.928H75.155C75.155 14.6187 75.0963 14.3467 74.979 14.112C74.8723 13.8667 74.707 13.68 74.483 13.552C74.259 13.4133 73.971 13.344 73.619 13.344C73.395 13.344 73.1763 13.376 72.963 13.44C72.7603 13.4933 72.5897 13.5733 72.451 13.68C72.3123 13.7867 72.2217 13.9253 72.179 14.096H69.907C69.971 13.6267 70.1203 13.2267 70.355 12.896C70.5897 12.5547 70.883 12.2773 71.235 12.064C71.587 11.8507 71.971 11.696 72.387 11.6C72.8137 11.4933 73.251 11.44 73.699 11.44C74.9257 11.44 75.8323 11.792 76.419 12.496C77.0057 13.1893 77.299 14.176 77.299 15.456V20H75.283L75.251 18.912C74.9843 19.2853 74.6803 19.5573 74.339 19.728C74.0083 19.8987 73.6883 20.0053 73.379 20.048C73.0697 20.0907 72.819 20.112 72.627 20.112ZM73.139 18.336C73.5123 18.336 73.8537 18.2613 74.163 18.112C74.4723 17.9627 74.7177 17.76 74.899 17.504C75.0803 17.248 75.171 16.96 75.171 16.64V16.432H73.635C73.411 16.432 73.1923 16.4427 72.979 16.464C72.7763 16.4853 72.5897 16.528 72.419 16.592C72.259 16.6453 72.131 16.736 72.035 16.864C71.939 16.992 71.891 17.1627 71.891 17.376C71.891 17.5893 71.9443 17.7707 72.051 17.92C72.1683 18.0587 72.323 18.1653 72.515 18.24C72.707 18.304 72.915 18.336 73.139 18.336ZM83.7847 20.112C83.3901 20.112 82.9847 20.0693 82.5687 19.984C82.1527 19.8987 81.7687 19.7547 81.4167 19.552C81.0647 19.3387 80.7661 19.056 80.5207 18.704C80.2754 18.3413 80.1154 17.8933 80.0407 17.36H82.3127C82.3767 17.552 82.4887 17.7173 82.6487 17.856C82.8194 17.9947 83.0114 18.096 83.2247 18.16C83.4487 18.224 83.6727 18.256 83.8967 18.256C84.0461 18.256 84.1954 18.2453 84.3447 18.224C84.4941 18.2027 84.6327 18.16 84.7607 18.096C84.8887 18.032 84.9901 17.952 85.0647 17.856C85.1394 17.7493 85.1767 17.616 85.1767 17.456C85.1767 17.2853 85.1234 17.152 85.0167 17.056C84.9101 16.96 84.7607 16.8853 84.5687 16.832C84.3767 16.768 84.1581 16.7093 83.9127 16.656C83.4754 16.56 83.0061 16.4533 82.5047 16.336C82.0034 16.2187 81.5714 16.048 81.2087 15.824C81.0594 15.7173 80.9261 15.6 80.8087 15.472C80.6914 15.344 80.5954 15.2 80.5207 15.04C80.4461 14.88 80.3874 14.7147 80.3447 14.544C80.3021 14.3627 80.2807 14.1707 80.2807 13.968C80.2807 13.5093 80.3767 13.12 80.5687 12.8C80.7714 12.4693 81.0381 12.2027 81.3687 12C81.6994 11.7973 82.0674 11.6533 82.4727 11.568C82.8781 11.472 83.2941 11.424 83.7207 11.424C84.2967 11.424 84.8301 11.52 85.3207 11.712C85.8114 11.8933 86.2167 12.1813 86.5367 12.576C86.8567 12.96 87.0541 13.4613 87.1287 14.08H84.9847C84.9421 13.8453 84.7981 13.6587 84.5527 13.52C84.3074 13.3707 84.0034 13.296 83.6407 13.296C83.5127 13.296 83.3741 13.3067 83.2247 13.328C83.0861 13.3493 82.9581 13.3867 82.8407 13.44C82.7234 13.4933 82.6274 13.568 82.5527 13.664C82.4781 13.7493 82.4407 13.8667 82.4407 14.016C82.4407 14.1333 82.4727 14.24 82.5367 14.336C82.6114 14.432 82.7127 14.512 82.8407 14.576C82.9794 14.64 83.1447 14.6987 83.3367 14.752C83.6994 14.8373 84.0621 14.9173 84.4247 14.992C84.7981 15.056 85.1287 15.1253 85.4167 15.2C85.7687 15.2747 86.0887 15.3973 86.3767 15.568C86.6754 15.7387 86.9154 15.9733 87.0967 16.272C87.2887 16.56 87.3847 16.9387 87.3847 17.408C87.3847 17.9413 87.2781 18.384 87.0647 18.736C86.8514 19.0773 86.5634 19.3493 86.2007 19.552C85.8487 19.7547 85.4594 19.8987 85.0327 19.984C84.6167 20.0693 84.2007 20.112 83.7847 20.112ZM93.4279 20.112C93.0332 20.112 92.6279 20.0693 92.2119 19.984C91.7959 19.8987 91.4119 19.7547 91.0599 19.552C90.7079 19.3387 90.4092 19.056 90.1639 18.704C89.9185 18.3413 89.7585 17.8933 89.6839 17.36H91.9559C92.0199 17.552 92.1319 17.7173 92.2919 17.856C92.4625 17.9947 92.6545 18.096 92.8679 18.16C93.0919 18.224 93.3159 18.256 93.5399 18.256C93.6892 18.256 93.8385 18.2453 93.9879 18.224C94.1372 18.2027 94.2759 18.16 94.4039 18.096C94.5319 18.032 94.6332 17.952 94.7079 17.856C94.7825 17.7493 94.8199 17.616 94.8199 17.456C94.8199 17.2853 94.7665 17.152 94.6599 17.056C94.5532 16.96 94.4039 16.8853 94.2119 16.832C94.0199 16.768 93.8012 16.7093 93.5559 16.656C93.1185 16.56 92.6492 16.4533 92.1479 16.336C91.6465 16.2187 91.2145 16.048 90.8519 15.824C90.7025 15.7173 90.5692 15.6 90.4519 15.472C90.3345 15.344 90.2385 15.2 90.1639 15.04C90.0892 14.88 90.0305 14.7147 89.9879 14.544C89.9452 14.3627 89.9239 14.1707 89.9239 13.968C89.9239 13.5093 90.0199 13.12 90.2119 12.8C90.4145 12.4693 90.6812 12.2027 91.0119 12C91.3425 11.7973 91.7105 11.6533 92.1159 11.568C92.5212 11.472 92.9372 11.424 93.3639 11.424C93.9399 11.424 94.4732 11.52 94.9639 11.712C95.4545 11.8933 95.8599 12.1813 96.1799 12.576C96.4999 12.96 96.6972 13.4613 96.7719 14.08H94.6279C94.5852 13.8453 94.4412 13.6587 94.1959 13.52C93.9505 13.3707 93.6465 13.296 93.2839 13.296C93.1559 13.296 93.0172 13.3067 92.8679 13.328C92.7292 13.3493 92.6012 13.3867 92.4839 13.44C92.3665 13.4933 92.2705 13.568 92.1959 13.664C92.1212 13.7493 92.0839 13.8667 92.0839 14.016C92.0839 14.1333 92.1159 14.24 92.1799 14.336C92.2545 14.432 92.3559 14.512 92.4839 14.576C92.6225 14.64 92.7879 14.6987 92.9799 14.752C93.3425 14.8373 93.7052 14.9173 94.0679 14.992C94.4412 15.056 94.7719 15.1253 95.0599 15.2C95.4119 15.2747 95.7319 15.3973 96.0199 15.568C96.3185 15.7387 96.5585 15.9733 96.7399 16.272C96.9319 16.56 97.0279 16.9387 97.0279 17.408C97.0279 17.9413 96.9212 18.384 96.7079 18.736C96.4945 19.0773 96.2065 19.3493 95.8439 19.552C95.4919 19.7547 95.1025 19.8987 94.6759 19.984C94.2599 20.0693 93.8439 20.112 93.4279 20.112ZM99.775 20V11.568H102.015V20H99.775ZM100.895 10.72C100.479 10.72 100.143 10.5973 99.887 10.352C99.631 10.096 99.503 9.77067 99.503 9.376C99.503 8.96 99.6363 8.624 99.903 8.368C100.17 8.112 100.506 7.984 100.911 7.984C101.284 7.984 101.604 8.112 101.871 8.368C102.148 8.61333 102.287 8.944 102.287 9.36C102.287 9.76533 102.154 10.096 101.887 10.352C101.631 10.5973 101.3 10.72 100.895 10.72ZM108.527 20.112C108.132 20.112 107.727 20.0693 107.311 19.984C106.895 19.8987 106.511 19.7547 106.159 19.552C105.807 19.3387 105.508 19.056 105.263 18.704C105.017 18.3413 104.857 17.8933 104.783 17.36H107.055C107.119 17.552 107.231 17.7173 107.391 17.856C107.561 17.9947 107.753 18.096 107.967 18.16C108.191 18.224 108.415 18.256 108.639 18.256C108.788 18.256 108.937 18.2453 109.087 18.224C109.236 18.2027 109.375 18.16 109.503 18.096C109.631 18.032 109.732 17.952 109.807 17.856C109.881 17.7493 109.919 17.616 109.919 17.456C109.919 17.2853 109.865 17.152 109.759 17.056C109.652 16.96 109.503 16.8853 109.311 16.832C109.119 16.768 108.9 16.7093 108.655 16.656C108.217 16.56 107.748 16.4533 107.247 16.336C106.745 16.2187 106.313 16.048 105.951 15.824C105.801 15.7173 105.668 15.6 105.551 15.472C105.433 15.344 105.337 15.2 105.263 15.04C105.188 14.88 105.129 14.7147 105.087 14.544C105.044 14.3627 105.023 14.1707 105.023 13.968C105.023 13.5093 105.119 13.12 105.311 12.8C105.513 12.4693 105.78 12.2027 106.111 12C106.441 11.7973 106.809 11.6533 107.215 11.568C107.62 11.472 108.036 11.424 108.463 11.424C109.039 11.424 109.572 11.52 110.063 11.712C110.553 11.8933 110.959 12.1813 111.279 12.576C111.599 12.96 111.796 13.4613 111.871 14.08H109.727C109.684 13.8453 109.54 13.6587 109.295 13.52C109.049 13.3707 108.745 13.296 108.383 13.296C108.255 13.296 108.116 13.3067 107.967 13.328C107.828 13.3493 107.7 13.3867 107.583 13.44C107.465 13.4933 107.369 13.568 107.295 13.664C107.22 13.7493 107.183 13.8667 107.183 14.016C107.183 14.1333 107.215 14.24 107.279 14.336C107.353 14.432 107.455 14.512 107.583 14.576C107.721 14.64 107.887 14.6987 108.079 14.752C108.441 14.8373 108.804 14.9173 109.167 14.992C109.54 15.056 109.871 15.1253 110.159 15.2C110.511 15.2747 110.831 15.3973 111.119 15.568C111.417 15.7387 111.657 15.9733 111.839 16.272C112.031 16.56 112.127 16.9387 112.127 17.408C112.127 17.9413 112.02 18.384 111.807 18.736C111.593 19.0773 111.305 19.3493 110.943 19.552C110.591 19.7547 110.201 19.8987 109.775 19.984C109.359 20.0693 108.943 20.112 108.527 20.112ZM118.314 20.112C117.364 20.112 116.66 19.8453 116.202 19.312C115.754 18.7787 115.53 18.048 115.53 17.12V13.568H114.266V11.568H115.53V9.296H117.77V11.568H120.33V13.568H117.77V16.656C117.77 16.9333 117.802 17.1733 117.866 17.376C117.94 17.5787 118.058 17.7387 118.218 17.856C118.388 17.9627 118.618 18.016 118.906 18.016C119.162 18.016 119.375 17.9787 119.546 17.904C119.727 17.8187 119.876 17.728 119.994 17.632L120.698 19.36C120.474 19.5413 120.223 19.6907 119.946 19.808C119.679 19.9147 119.407 19.9893 119.13 20.032C118.852 20.0853 118.58 20.112 118.314 20.112ZM125.736 20.112C125.352 20.112 124.978 20.064 124.616 19.968C124.264 19.8613 123.949 19.7013 123.672 19.488C123.394 19.2747 123.176 19.008 123.016 18.688C122.856 18.368 122.776 17.9947 122.776 17.568C122.776 16.992 122.893 16.5333 123.128 16.192C123.362 15.84 123.677 15.5733 124.072 15.392C124.466 15.2107 124.92 15.088 125.432 15.024C125.954 14.96 126.493 14.928 127.048 14.928H128.264C128.264 14.6187 128.205 14.3467 128.088 14.112C127.981 13.8667 127.816 13.68 127.592 13.552C127.368 13.4133 127.08 13.344 126.728 13.344C126.504 13.344 126.285 13.376 126.072 13.44C125.869 13.4933 125.698 13.5733 125.56 13.68C125.421 13.7867 125.33 13.9253 125.288 14.096H123.016C123.08 13.6267 123.229 13.2267 123.464 12.896C123.698 12.5547 123.992 12.2773 124.344 12.064C124.696 11.8507 125.08 11.696 125.496 11.6C125.922 11.4933 126.36 11.44 126.808 11.44C128.034 11.44 128.941 11.792 129.528 12.496C130.114 13.1893 130.408 14.176 130.408 15.456V20H128.392L128.36 18.912C128.093 19.2853 127.789 19.5573 127.448 19.728C127.117 19.8987 126.797 20.0053 126.488 20.048C126.178 20.0907 125.928 20.112 125.736 20.112ZM126.248 18.336C126.621 18.336 126.962 18.2613 127.272 18.112C127.581 17.9627 127.826 17.76 128.008 17.504C128.189 17.248 128.28 16.96 128.28 16.64V16.432H126.744C126.52 16.432 126.301 16.4427 126.088 16.464C125.885 16.4853 125.698 16.528 125.528 16.592C125.368 16.6453 125.24 16.736 125.144 16.864C125.048 16.992 125 17.1627 125 17.376C125 17.5893 125.053 17.7707 125.16 17.92C125.277 18.0587 125.432 18.1653 125.624 18.24C125.816 18.304 126.024 18.336 126.248 18.336ZM133.597 20V11.568H135.693L135.805 12.544C136.04 12.256 136.307 12.032 136.605 11.872C136.915 11.7013 137.224 11.584 137.533 11.52C137.853 11.456 138.141 11.424 138.397 11.424C139.208 11.424 139.837 11.6 140.285 11.952C140.744 12.304 141.069 12.7787 141.261 13.376C141.464 13.9627 141.565 14.6187 141.565 15.344V20H139.325V15.632C139.325 15.376 139.304 15.12 139.261 14.864C139.219 14.608 139.139 14.3733 139.021 14.16C138.915 13.9467 138.76 13.776 138.557 13.648C138.355 13.52 138.088 13.456 137.757 13.456C137.331 13.456 136.973 13.5627 136.685 13.776C136.397 13.9893 136.184 14.2773 136.045 14.64C135.907 15.0027 135.837 15.4027 135.837 15.84V20H133.597ZM148.501 20.112C147.637 20.112 146.896 19.936 146.277 19.584C145.669 19.232 145.205 18.736 144.885 18.096C144.565 17.4453 144.405 16.6827 144.405 15.808C144.405 14.9227 144.57 14.1547 144.901 13.504C145.232 12.8427 145.706 12.3307 146.325 11.968C146.954 11.6053 147.712 11.424 148.597 11.424C149.28 11.424 149.888 11.5467 150.421 11.792C150.954 12.0373 151.381 12.3893 151.701 12.848C152.032 13.3067 152.224 13.872 152.277 14.544H150.085C149.989 14.1707 149.802 13.8987 149.525 13.728C149.258 13.5573 148.938 13.472 148.565 13.472C148.085 13.472 147.701 13.5893 147.413 13.824C147.136 14.0587 146.933 14.3573 146.805 14.72C146.688 15.0827 146.629 15.4453 146.629 15.808C146.629 16.2027 146.693 16.576 146.821 16.928C146.949 17.2693 147.152 17.552 147.429 17.776C147.717 17.9893 148.09 18.096 148.549 18.096C148.933 18.096 149.269 18.0107 149.557 17.84C149.845 17.6587 150.032 17.3813 150.117 17.008H152.357C152.304 17.7013 152.096 18.2773 151.733 18.736C151.37 19.1947 150.906 19.5413 150.341 19.776C149.786 20 149.173 20.112 148.501 20.112ZM159.005 20.112C158.12 20.112 157.368 19.936 156.749 19.584C156.131 19.232 155.656 18.736 155.325 18.096C154.995 17.4453 154.829 16.688 154.829 15.824C154.829 14.9493 155 14.1867 155.341 13.536C155.683 12.8747 156.163 12.3573 156.781 11.984C157.411 11.6107 158.152 11.424 159.005 11.424C159.645 11.424 160.205 11.5307 160.685 11.744C161.176 11.9573 161.587 12.256 161.917 12.64C162.259 13.024 162.509 13.472 162.669 13.984C162.84 14.4853 162.92 15.0293 162.909 15.616C162.909 15.7653 162.904 15.9093 162.893 16.048C162.883 16.1867 162.861 16.3253 162.829 16.464H157.053C157.085 16.784 157.176 17.0773 157.325 17.344C157.475 17.6107 157.683 17.824 157.949 17.984C158.227 18.1333 158.568 18.208 158.973 18.208C159.24 18.208 159.485 18.1813 159.709 18.128C159.933 18.064 160.125 17.968 160.285 17.84C160.445 17.712 160.557 17.5627 160.621 17.392H162.829C162.691 18.0213 162.429 18.5387 162.045 18.944C161.672 19.3493 161.219 19.648 160.685 19.84C160.152 20.0213 159.592 20.112 159.005 20.112ZM157.101 14.896H160.765C160.755 14.608 160.68 14.3413 160.541 14.096C160.413 13.84 160.216 13.6373 159.949 13.488C159.693 13.328 159.363 13.248 158.957 13.248C158.552 13.248 158.211 13.328 157.933 13.488C157.667 13.648 157.464 13.856 157.325 14.112C157.197 14.3573 157.123 14.6187 157.101 14.896ZM165.793 20V11.568H167.889L168.001 12.544C168.235 12.256 168.502 12.032 168.801 11.872C169.11 11.7013 169.419 11.584 169.729 11.52C170.049 11.456 170.337 11.424 170.593 11.424C171.403 11.424 172.033 11.6 172.481 11.952C172.939 12.304 173.265 12.7787 173.457 13.376C173.659 13.9627 173.761 14.6187 173.761 15.344V20H171.521V15.632C171.521 15.376 171.499 15.12 171.457 14.864C171.414 14.608 171.334 14.3733 171.217 14.16C171.11 13.9467 170.955 13.776 170.753 13.648C170.55 13.52 170.283 13.456 169.953 13.456C169.526 13.456 169.169 13.5627 168.881 13.776C168.593 13.9893 168.379 14.2773 168.241 14.64C168.102 15.0027 168.033 15.4027 168.033 15.84V20H165.793Z" fill="#245A89"/>
</svg>
